<svg xmlns="http://www.w3.org/2000/svg" viewBox="0 0 960 600" role="img" aria-labelledby="title desc">
  <title id="title">Landing oldal blog thumbnail</title>
  <desc id="desc">Landing oldal hero, CTA es konverzios ritmus illusztracio.</desc>
  <defs>
    <linearGradient id="bg" x1="0" x2="1" y1="0" y2="1">
      <stop offset="0" stop-color="#071a3b"/>
      <stop offset="1" stop-color="#00142e"/>
    </linearGradient>
    <linearGradient id="cta" x1="0" x2="1">
      <stop offset="0" stop-color="#3aa9ff"/>
      <stop offset="1" stop-color="#1e88ff"/>
    </linearGradient>
  </defs>
  <rect width="960" height="600" fill="url(#bg)"/>
  <path d="M88 454 C222 330 342 520 470 380 C610 226 735 320 888 170" fill="none" stroke="#6fd0ff" stroke-width="4" opacity=".34"/>
  <rect x="118" y="92" width="744" height="430" rx="32" fill="#fff" opacity=".08" stroke="#6fd0ff" stroke-opacity=".26"/>
  <rect x="164" y="150" width="350" height="46" rx="23" fill="#fff" opacity=".2"/>
  <rect x="164" y="230" width="285" height="22" rx="11" fill="#fff" opacity=".17"/>
  <rect x="164" y="272" width="235" height="22" rx="11" fill="#fff" opacity=".14"/>
  <rect x="164" y="330" width="146" height="50" rx="25" fill="url(#cta)"/>
  <rect x="560" y="150" width="245" height="290" rx="26" fill="#fff" opacity=".1"/>
  <circle cx="682" cy="258" r="78" fill="#2caae8" opacity=".25"/>
  <rect x="610" y="365" width="145" height="16" rx="8" fill="#fff" opacity=".25"/>
</svg>
