<svg xmlns="http://www.w3.org/2000/svg" viewBox="0 0 960 600" role="img" aria-labelledby="title desc">
  <title id="title">WordPress blog thumbnail</title>
  <desc id="desc">WordPress admin es szerkesztheto tartalom illusztracio.</desc>
  <defs>
    <linearGradient id="bg" x1="0" x2="1" y1="0" y2="1">
      <stop offset="0" stop-color="#00142e"/>
      <stop offset=".52" stop-color="#071a3b"/>
      <stop offset="1" stop-color="#123b72"/>
    </linearGradient>
    <linearGradient id="button" x1="0" x2="1">
      <stop offset="0" stop-color="#6fd0ff"/>
      <stop offset="1" stop-color="#2caae8"/>
    </linearGradient>
  </defs>
  <rect width="960" height="600" fill="url(#bg)"/>
  <circle cx="785" cy="118" r="148" fill="#2caae8" opacity=".13"/>
  <rect x="110" y="105" width="720" height="410" rx="30" fill="#fff" opacity=".08" stroke="#6fd0ff" stroke-opacity=".28"/>
  <rect x="110" y="105" width="160" height="410" rx="30" fill="#fff" opacity=".08"/>
  <rect x="145" y="150" width="82" height="18" rx="9" fill="#6fd0ff" opacity=".84"/>
  <rect x="145" y="203" width="80" height="12" rx="6" fill="#fff" opacity=".34"/>
  <rect x="145" y="245" width="95" height="12" rx="6" fill="#fff" opacity=".24"/>
  <rect x="145" y="287" width="70" height="12" rx="6" fill="#fff" opacity=".24"/>
  <rect x="310" y="150" width="470" height="46" rx="15" fill="#fff" opacity=".13"/>
  <rect x="310" y="232" width="205" height="170" rx="22" fill="#fff" opacity=".1"/>
  <rect x="545" y="232" width="235" height="28" rx="14" fill="#6fd0ff" opacity=".65"/>
  <rect x="545" y="292" width="180" height="16" rx="8" fill="#fff" opacity=".2"/>
  <rect x="545" y="330" width="215" height="16" rx="8" fill="#fff" opacity=".2"/>
  <rect x="545" y="382" width="118" height="42" rx="21" fill="url(#button)"/>
</svg>
