<?xml version="1.0" encoding="UTF-8"?><svg id="a" xmlns="http://www.w3.org/2000/svg" width="1170" height="780" viewBox="0 0 1170 780"><defs><style>.b{fill:#05609e;}.c{fill:#053852;}.d{fill:#0a3a5a;}.e{fill:#053954;}.f{fill:#99b9ff;}.g{fill:#02619f;}.h{fill:#fff;}.i{fill:#ebf4fb;}.j{fill:#075f9d;}.k{fill:#093a59;}.l{fill:#063a57;}.m{fill:#f7c450;}.n{fill:#083a58;}.o{fill:#033955;}.p{fill:#080717;}.q{fill:#1d1d1b;}.r{fill:#194967;}.s{fill:#89b0dd;}.t{fill:#0b3a5b;}</style></defs><path class="d" d="M110.11,198.86l1.08,53.23,29.68-.6c3.32,13.28,8.83,25.65,16.14,36.75l-20.59,21.45,38.4,36.87,20.59-21.45c11.39,6.85,23.97,11.88,37.38,14.64l.6,29.68,53.23-1.08-.6-29.68c13.29-3.31,25.65-8.84,36.75-16.15l21.44,20.59,36.87-38.4-21.44-20.59c6.85-11.39,11.87-23.97,14.63-37.37l29.68-.6-1.08-53.23-29.68.6c-3.31-13.29-8.83-25.65-16.14-36.75l20.59-21.45-38.4-36.86-20.59,21.45c-11.39-6.85-23.97-11.88-37.38-14.64l-.6-29.68-53.23,1.08.6,29.68c-13.29,3.3-25.65,8.84-36.75,16.15l-21.44-20.59-36.87,38.4,21.44,20.59c-6.85,11.39-11.86,23.97-14.63,37.38l-29.68.6ZM256.23,182.58c22.05-.45,40.29,17.06,40.74,39.11.45,22.05-17.06,40.29-39.11,40.74-22.05.45-40.29-17.06-40.74-39.11-.45-22.05,17.06-40.29,39.11-40.74Z"/><path class="k" d="M706.17,172.87l.25,12.09,6.74-.14c.75,3.02,2.01,5.83,3.67,8.35l-4.68,4.87,8.73,8.38,4.68-4.87c2.59,1.56,5.45,2.7,8.49,3.33l.14,6.74,12.09-.25-.14-6.74c3.02-.75,5.83-2.01,8.35-3.67l4.87,4.68,8.38-8.73-4.87-4.68c1.56-2.59,2.7-5.45,3.32-8.49l6.74-.14-.25-12.09-6.74.14c-.75-3.02-2.01-5.83-3.67-8.35l4.68-4.87-8.73-8.38-4.68,4.87c-2.59-1.56-5.45-2.7-8.49-3.33l-.14-6.74-12.09.25.14,6.74c-3.02.75-5.83,2.01-8.35,3.67l-4.87-4.68-8.38,8.72,4.87,4.68c-1.56,2.59-2.69,5.45-3.32,8.49l-6.74.14ZM739.37,169.17c5.01-.1,9.15,3.88,9.26,8.89.1,5.01-3.88,9.15-8.89,9.26-5.01.1-9.15-3.88-9.26-8.89-.1-5.01,3.88-9.15,8.89-9.26Z"/><path class="l" d="M994.97,294.84h-51.07v-31.92h51.07v31.92ZM956.67,282.08h25.53v-6.39h-25.53v6.39Z"/><path class="l" d="M969.44,486.35c-49.27,0-89.37-40.09-89.37-89.37h12.77c0,42.24,34.37,76.61,76.6,76.61s76.61-34.37,76.61-76.61-34.36-76.6-76.61-76.6c-37.53,0-69.29,26.82-75.52,63.76l-12.59-2.12c7.28-43.12,44.34-74.41,88.12-74.41,49.29,0,89.37,40.09,89.37,89.37s-40.09,89.37-89.37,89.37Z"/><rect class="l" x="963.05" y="288.46" width="12.77" height="25.54"/><rect class="l" x="963.05" y="333.15" width="12.77" height="70.22"/><rect class="l" x="1015.88" y="315.59" width="31.6" height="12.77" transform="translate(74.52 823.84) rotate(-45)"/><rect class="l" x="1036.47" y="297.26" width="12.76" height="27.08" transform="translate(85.67 828.43) rotate(-45)"/><path class="l" d="M1026.89,396.98h-12.76c0-20.4-13.79-38.2-33.52-43.27l3.19-12.37c25.38,6.53,43.09,29.42,43.09,55.64Z"/><rect class="l" x="854.53" y="390.6" width="57.46" height="12.77"/><rect class="l" x="816.23" y="390.6" width="25.54" height="12.77"/><rect class="l" x="816.23" y="352.3" width="44.69" height="12.77"/><rect class="l" x="835.38" y="428.91" width="38.3" height="12.76"/><rect class="h" x="254.54" y="299.77" width="138.26" height="2"/><rect class="h" x="265.98" y="316.06" width="22.87" height="2"/><rect class="h" x="265.98" y="332.35" width="22.87" height="2"/><rect class="h" x="265.98" y="348.64" width="22.87" height="2"/><rect class="h" x="333.55" y="316.06" width="70.17" height="2"/><rect class="h" x="333.55" y="332.35" width="70.17" height="2"/><rect class="h" x="333.55" y="348.64" width="70.17" height="2"/><rect class="h" x="298.72" y="316.06" width="16.11" height="2"/><rect class="h" x="298.72" y="332.35" width="16.11" height="2"/><rect class="h" x="298.72" y="348.64" width="16.11" height="2"/><rect class="h" x="321.79" y="316.06" width="4.29" height="2"/><rect class="h" x="321.79" y="332.35" width="4.29" height="2"/><rect class="h" x="321.79" y="348.64" width="4.29" height="2"/><rect class="h" x="255.06" y="316.06" width="4.29" height="2"/><rect class="h" x="255.06" y="332.35" width="4.29" height="2"/><rect class="h" x="255.06" y="348.64" width="4.29" height="2"/><rect class="h" x="265.98" y="381.21" width="35.35" height="2"/><rect class="h" x="350.19" y="381.21" width="53.54" height="2"/><rect class="h" x="311.2" y="381.21" width="20.27" height="2"/><rect class="h" x="338.43" y="381.21" width="4.29" height="2"/><rect class="h" x="405.8" y="413.79" width="165.81" height="2"/><rect class="h" x="313.28" y="413.79" width="79.53" height="2"/><rect class="h" x="466.1" y="381.21" width="53.54" height="2"/><rect class="h" x="418.8" y="381.21" width="28.59" height="2"/><rect class="h" x="454.34" y="381.21" width="4.29" height="2"/><rect class="h" x="525.03" y="381.21" width="4.29" height="2"/><rect class="h" x="255.06" y="381.21" width="4.29" height="2"/><rect class="h" x="265.98" y="446.36" width="35.35" height="2"/><rect class="h" x="255.06" y="446.36" width="4.29" height="2"/><rect class="h" x="308.08" y="446.36" width="4.29" height="2"/><rect class="h" x="238.95" y="511.52" width="35.35" height="2"/><rect class="h" x="228.03" y="511.52" width="4.29" height="2"/><rect class="h" x="281.05" y="511.52" width="4.29" height="2"/><rect class="h" x="284.69" y="430.07" width="4.29" height="2"/><rect class="h" x="284.69" y="397.5" width="20.79" height="2"/><rect class="h" x="313.28" y="397.5" width="81.06" height="2"/><rect class="h" x="453.11" y="316.06" width="70.17" height="2"/><rect class="h" x="453.11" y="332.35" width="70.17" height="2"/><rect class="h" x="453.11" y="348.64" width="70.17" height="2"/><rect class="h" x="526.92" y="316.06" width="122.67" height="2"/><rect class="h" x="526.92" y="332.35" width="167.89" height="2"/><rect class="h" x="526.92" y="348.64" width="198.04" height="2"/><rect class="h" x="418.28" y="316.06" width="16.11" height="2"/><rect class="h" x="418.28" y="332.35" width="16.11" height="2"/><rect class="h" x="418.28" y="348.64" width="16.11" height="2"/><rect class="h" x="441.34" y="316.06" width="4.29" height="2"/><rect class="h" x="441.34" y="332.35" width="4.29" height="2"/><rect class="h" x="441.34" y="348.64" width="4.29" height="2"/><rect class="h" x="665.7" y="316.06" width="4.29" height="2"/><rect class="h" x="706.96" y="332.35" width="4.29" height="2"/><rect class="h" x="735.03" y="348.64" width="4.29" height="2"/><rect class="h" x="254.54" y="364.92" width="138.26" height="2"/><rect class="h" x="237.91" y="546.16" width="22.87" height="2"/><rect class="h" x="291.45" y="578.73" width="22.87" height="2"/><rect class="h" x="359.02" y="578.73" width="151.78" height="2"/><rect class="h" x="256.1" y="562.44" width="166.24" height="2"/><rect class="h" x="324.2" y="578.73" width="16.11" height="2"/><rect class="h" x="347.26" y="578.73" width="4.29" height="2"/><rect class="h" x="226.99" y="546.16" width="4.29" height="2"/><rect class="h" x="265.98" y="546.16" width="4.29" height="2"/><rect class="h" x="322.11" y="595.02" width="10.4" height="2"/><rect class="h" x="311.2" y="595.02" width="4.29" height="2"/><rect class="h" x="337.71" y="595.02" width="4.29" height="2"/><rect class="h" x="351.22" y="627.6" width="10.4" height="2"/><rect class="h" x="340.31" y="627.6" width="4.29" height="2"/><rect class="h" x="366.82" y="627.6" width="4.29" height="2"/><rect class="h" x="280.53" y="578.73" width="4.29" height="2"/><rect class="h" x="319.41" y="611.31" width="108.94" height="2"/><rect class="h" x="516" y="578.73" width="4.29" height="2"/><rect class="h" x="254.54" y="462.65" width="190.24" height="2"/><rect class="h" x="254.54" y="478.94" width="281.73" height="2"/><rect class="h" x="254.54" y="495.23" width="95.64" height="2"/><rect class="h" x="178.65" y="299.77" width="10.39" height="2"/><rect class="h" x="178.65" y="316.06" width="10.39" height="2"/><rect class="h" x="178.65" y="332.35" width="10.39" height="2"/><rect class="h" x="178.65" y="348.64" width="10.39" height="2"/><rect class="h" x="178.65" y="364.92" width="10.39" height="2"/><rect class="h" x="178.65" y="381.21" width="10.39" height="2"/><rect class="h" x="178.65" y="397.5" width="10.39" height="2"/><rect class="h" x="178.65" y="413.79" width="10.39" height="2"/><rect class="h" x="178.65" y="430.07" width="10.39" height="2"/><rect class="h" x="178.65" y="446.36" width="10.39" height="2"/><rect class="h" x="178.65" y="462.65" width="10.39" height="2"/><rect class="h" x="178.65" y="478.94" width="10.39" height="2"/><rect class="h" x="178.65" y="495.23" width="10.39" height="2"/><rect class="h" x="178.65" y="511.52" width="10.39" height="2"/><rect class="h" x="178.65" y="527.81" width="10.39" height="2"/><rect class="h" x="178.65" y="544.09" width="10.39" height="2"/><rect class="h" x="178.65" y="560.38" width="10.39" height="2"/><path class="o" d="M588.26,530.09l-90.52-17.1c-5.92-1.12-10.44-5.93-11.19-11.9h0c-1.05-8.4,5.6-15.78,14.06-15.6l143.23,3.06c39.13.84,72.52,24.29,88.97,50.98,0,0-137.66-8.15-144.55-9.45Z"/><path class="h" d="M700.76,547.84l-153.9,37.31-87.67-25.36-47.6-54.64,8.15-2.86c10.43-3.66,22.02-1.19,30.05,6.4l31.93,30.14,36.29-1.71c13.99-.66,27.73-3.97,40.49-9.76l57.94-26.29c32.54-14.77,70.15-13.29,101.43,3.99l24.15,24.62-41.26,18.16Z"/><path class="h" d="M535.37,578.58l-93.03-10.57-69.03-75.7,2.51-1.46c12.09-7.02,27.38-5,37.24,4.91l57.75,58.04,64.56,24.78Z"/><path class="h" d="M524.83,578.13l-96.25-4.27-84.21-58.35,2.12-1.98c10.21-9.54,25.57-11,37.39-3.55l69.27,43.65,71.68,24.49Z"/><path class="h" d="M539.2,580.77l-104.94-3.81c-4.83-.18-9.61-1.13-14.14-2.81l-57.46-21.39,1.61-2.41c7.76-11.62,22.38-16.55,35.59-11.99l77.41,26.68,61.93,15.74Z"/><path class="h" d="M645.49,501.08l5.24-5.71c18.39-4.56,44.17-3.03,62.85,6.37l185.37,135.89h-181.57l-73.53-103.52,1.65-33.03Z"/><path class="p" d="M546.86,586.65c-.14,0-.28-.02-.42-.06l-78.73-22.77c-6.12-1.77-11.57-5.25-15.76-10.05l-41.49-47.63c-.33-.38-.45-.89-.32-1.37.13-.48.48-.87.95-1.03l8.15-2.86c.78-.27,1.64.14,1.91.92.27.78-.14,1.64-.92,1.91l-6.06,2.13,40.04,45.96c3.81,4.37,8.76,7.53,14.33,9.14l78.73,22.77c.8.23,1.25,1.06,1.02,1.86-.19.66-.79,1.08-1.44,1.08Z"/><path class="p" d="M523.83,579.93c-.06,0-.13,0-.2-.01l-70.01-9.12c-7.74-.88-14.92-4.55-20.19-10.32l-61.24-67.16c-.56-.61-.51-1.56.1-2.12.61-.56,1.56-.51,2.12.1l61.24,67.16c4.78,5.24,11.29,8.57,18.34,9.37l70.03,9.12c.82.11,1.4.86,1.29,1.68-.1.76-.74,1.31-1.49,1.31Z"/><path class="p" d="M525.83,581.26s-.06,0-.09,0l-88.28-5.51c-6.12-.27-12.03-2.26-17.09-5.76l-43.32-30.01c-.68-.47-.85-1.41-.38-2.09.47-.68,1.41-.85,2.09-.38l43.32,30.01c4.59,3.18,9.96,4.99,15.54,5.23l88.31,5.51c.83.05,1.46.76,1.4,1.59-.05.79-.71,1.41-1.5,1.41Z"/><path class="q" d="M930.42,640.56H208.36V234.59c0-7.55,5.3-13.68,11.82-13.68h698.42c6.52,0,11.82,6.14,11.82,13.68v405.96ZM210.36,638.56h718.06V234.59c0-6.44-4.41-11.68-9.82-11.68H220.18c-5.42,0-9.82,5.24-9.82,11.68v403.96Z"/><path class="q" d="M240.68,258.47c-4.37,0-7.92-3.55-7.92-7.92s3.55-7.92,7.92-7.92,7.93,3.55,7.93,7.92-3.56,7.92-7.93,7.92ZM240.68,244.62c-3.27,0-5.92,2.66-5.92,5.92s2.66,5.92,5.92,5.92,5.93-2.66,5.93-5.92-2.66-5.92-5.93-5.92Z"/><path class="q" d="M261.01,258.47c-4.37,0-7.92-3.55-7.92-7.92s3.55-7.92,7.92-7.92,7.93,3.55,7.93,7.92-3.56,7.92-7.93,7.92ZM261.01,244.62c-3.26,0-5.92,2.66-5.92,5.92s2.66,5.92,5.92,5.92,5.93-2.66,5.93-5.92-2.66-5.92-5.93-5.92Z"/><path class="q" d="M281.35,258.47c-4.37,0-7.93-3.55-7.93-7.92s3.56-7.92,7.93-7.92,7.92,3.55,7.92,7.92-3.55,7.92-7.92,7.92ZM281.35,244.62c-3.27,0-5.93,2.66-5.93,5.92s2.66,5.92,5.93,5.92,5.92-2.66,5.92-5.92-2.66-5.92-5.92-5.92Z"/><path class="q" d="M821.48,261.15c-5.85,0-10.6-4.76-10.6-10.6s4.76-10.6,10.6-10.6,10.6,4.75,10.6,10.6-4.75,10.6-10.6,10.6ZM821.48,241.95c-4.74,0-8.6,3.86-8.6,8.6s3.86,8.6,8.6,8.6,8.6-3.86,8.6-8.6-3.86-8.6-8.6-8.6Z"/><polygon class="q" points="821.41 254.33 815.97 248.89 817.39 247.47 821.41 251.5 825.44 247.47 826.85 248.89 821.41 254.33"/><polygon class="q" points="342.67 260.12 333.1 250.55 342.67 240.97 344.08 242.38 335.93 250.55 344.08 258.71 342.67 260.12"/><polygon class="q" points="361.43 260.12 360.02 258.71 368.17 250.55 360.02 242.39 361.43 240.97 371 250.55 361.43 260.12"/><rect class="q" x="852.14" y="242.61" width="2" height="15.87"/><rect class="q" x="845.2" y="249.55" width="15.87" height="2"/><path class="q" d="M880.3,244.1v2.45h-2.45v-2.45h2.45ZM882.3,242.1h-6.45v6.45h6.45v-6.45h0Z"/><path class="q" d="M880.3,254.54v2.45h-2.45v-2.45h2.45ZM882.3,252.54h-6.45v6.45h6.45v-6.45h0Z"/><path class="q" d="M890.84,244.1v2.45h-2.45v-2.45h2.45ZM892.84,242.1h-6.45v6.45h6.45v-6.45h0Z"/><path class="q" d="M890.84,254.54v2.45h-2.45v-2.45h2.45ZM892.84,252.54h-6.45v6.45h6.45v-6.45h0Z"/><path class="n" d="M908.5,166.95h-114.88c-9.77,0-17.72-7.95-17.72-17.72s7.95-17.72,17.72-17.72h114.88c9.77,0,17.72,7.95,17.72,17.72s-7.95,17.72-17.72,17.72ZM793.62,133.5c-8.67,0-15.72,7.05-15.72,15.72s7.05,15.72,15.72,15.72h114.88c8.67,0,15.72-7.05,15.72-15.72s-7.05-15.72-15.72-15.72h-114.88Z"/><path class="n" d="M793.62,175.31h114.88c9.23,0,16.72,7.49,16.72,16.72h0c0,9.23-7.49,16.72-16.72,16.72h-114.88c-9.23,0-16.72-7.49-16.72-16.72h0c0-9.23,7.49-16.72,16.72-16.72Z"/><rect class="n" x="794.06" y="140.29" width="2" height="16.84" transform="translate(268.75 762.9) rotate(-60)"/><rect class="n" x="786.64" y="147.71" width="16.84" height="2" transform="translate(32.14 417.39) rotate(-29.99)"/><rect class="n" x="794.06" y="140.29" width="2" height="16.84"/><rect class="n" x="818.15" y="140.29" width="2" height="16.84" transform="translate(280.79 783.76) rotate(-60)"/><rect class="n" x="810.73" y="147.71" width="16.84" height="2" transform="translate(35.37 429.43) rotate(-29.99)"/><rect class="n" x="818.15" y="140.29" width="2" height="16.84"/><rect class="n" x="842.23" y="140.29" width="2" height="16.84" transform="translate(292.83 804.62) rotate(-60)"/><rect class="n" x="834.81" y="147.71" width="16.84" height="2" transform="translate(38.59 441.47) rotate(-29.99)"/><rect class="n" x="842.23" y="140.29" width="2" height="16.84"/><rect class="h" x="309.83" y="669.34" width="33.2" height="2"/><rect class="h" x="309.83" y="676.74" width="33.2" height="2"/><polygon class="h" points="299.81 677.86 295.67 675.19 296.75 673.5 299.37 675.2 303.95 669.46 305.51 670.71 299.81 677.86"/><rect class="h" x="309.83" y="691.42" width="33.2" height="2"/><rect class="h" x="309.83" y="698.83" width="33.2" height="2"/><polygon class="h" points="299.81 699.94 295.67 697.27 296.75 695.59 299.37 697.28 303.95 691.55 305.51 692.79 299.81 699.94"/><path class="t" d="M680.58,187.36h-240.44c-14.75,0-26.71,11.96-26.71,26.71v187.01c0,14.75,11.96,26.71,26.71,26.71h80.2l13.36,13.36,26.7,26.72,26.7-26.72,13.36-13.36h80.12c14.76,0,26.71-11.96,26.71-26.71v-187.01c0-14.75-11.96-26.71-26.71-26.71Z"/><path class="h" d="M476.29,313.52l36.52,16.04v22.73l-58.69-29.34v-19.19l58.69-29.42v22.73l-36.52,16.44Z"/><path class="h" d="M539.57,373.33h-16.69l35.23-127.45h16.69l-35.23,127.45Z"/><path class="h" d="M624.62,313.19l-37.24-16.2v-22.57l59.49,29.34v19.19l-59.49,29.42v-22.57l37.24-16.61Z"/><path class="e" d="M142.86,587.62v87.04c0,6.45,5.22,11.67,11.67,11.67h110.13c6.44,0,11.67-5.22,11.67-11.67v-26.04l5.83-5.84,11.67-11.66-11.67-11.66-5.83-5.84v-26.01c0-6.44-5.22-11.67-11.67-11.67h-110.13c-6.44,0-11.67,5.22-11.67,11.67Z"/><path class="h" d="M223.26,656.89c2.05-.98,3.19-3.48,3.43-7.5.04-.7.06-3.49.06-8.36s1.7-8.3,5.09-10.28c-3.4-1.96-5.09-5.35-5.09-10.16l-.03-8.01c-.19-4.29-1.36-6.95-3.49-7.98l1.73-5.19c6.43,2.09,9.73,6.85,9.9,14.26v6.98c0,4.53,1.46,6.79,4.39,6.79v6.66c-2.93,0-4.39,2.23-4.39,6.7v6.92c-.15,7.5-3.45,12.29-9.9,14.39l-1.7-5.22Z"/><path class="h" d="M187.82,662.11c-6.43-2.09-9.73-6.86-9.9-14.29v-6.95c0-4.51-1.47-6.76-4.42-6.76v-6.66c2.95,0,4.42-2.25,4.42-6.76v-6.66c.04-3.89.88-7.03,2.52-9.42,1.63-2.39,4.1-4.12,7.38-5.19l1.73,5.19c-2.16,1-3.33,3.66-3.52,7.98-.02.45-.03,3.12-.03,8.01s-1.74,8.29-5.22,10.19c3.48,1.88,5.22,5.27,5.22,10.16v6.28c0,2.88.29,5.08.86,6.58.58,1.51,1.46,2.54,2.66,3.09l-1.7,5.22Z"/><path class="h" d="M743.16,455.47c-.24,5.32-1.73,9.34-4.49,12.08-2.76,2.73-6.64,4.1-11.66,4.1-5.28,0-9.32-1.73-12.13-5.21-2.81-3.47-4.21-8.42-4.21-14.85v-7.85c0-6.41,1.45-11.35,4.36-14.82,2.9-3.47,6.94-5.21,12.11-5.21s8.94,1.42,11.58,4.26c2.64,2.84,4.14,6.92,4.5,12.24h-9.45c-.08-3.29-.59-5.56-1.52-6.81s-2.63-1.87-5.11-1.87-4.3.88-5.35,2.64c-1.05,1.76-1.6,4.66-1.67,8.7v8.81c0,4.63.52,7.82,1.55,9.55,1.04,1.73,2.81,2.6,5.33,2.6s4.19-.6,5.13-1.81c.94-1.21,1.47-3.39,1.6-6.55h9.42Z"/><path class="h" d="M768.66,458.77c0-1.9-.49-3.34-1.46-4.31-.97-.97-2.74-1.98-5.3-3.03-4.68-1.77-8.04-3.85-10.09-6.23-2.05-2.38-3.08-5.2-3.08-8.44,0-3.93,1.39-7.09,4.18-9.47,2.79-2.38,6.33-3.57,10.62-3.57,2.86,0,5.41.6,7.66,1.81,2.24,1.21,3.97,2.91,5.17,5.11,1.21,2.2,1.81,4.7,1.81,7.5h-9.39c0-2.18-.46-3.84-1.39-4.98-.93-1.14-2.27-1.71-4.02-1.71-1.64,0-2.93.49-3.84,1.46-.92.97-1.38,2.28-1.38,3.92,0,1.28.51,2.44,1.54,3.48,1.03,1.04,2.84,2.11,5.45,3.22,4.55,1.65,7.85,3.66,9.92,6.06,2.06,2.39,3.09,5.44,3.09,9.13,0,4.06-1.29,7.23-3.88,9.52-2.58,2.29-6.1,3.43-10.54,3.43-3.01,0-5.76-.62-8.23-1.86-2.48-1.24-4.42-3.01-5.81-5.32-1.4-2.31-2.1-5.03-2.1-8.17h9.45c0,2.69.52,4.65,1.57,5.86,1.05,1.22,2.76,1.83,5.13,1.83,3.29,0,4.93-1.74,4.93-5.22Z"/><path class="h" d="M804.1,458.77c0-1.9-.49-3.34-1.46-4.31-.97-.97-2.74-1.98-5.3-3.03-4.68-1.77-8.04-3.85-10.09-6.23-2.05-2.38-3.08-5.2-3.08-8.44,0-3.93,1.39-7.09,4.18-9.47,2.79-2.38,6.33-3.57,10.62-3.57,2.86,0,5.41.6,7.66,1.81,2.24,1.21,3.97,2.91,5.17,5.11,1.21,2.2,1.81,4.7,1.81,7.5h-9.39c0-2.18-.46-3.84-1.39-4.98-.93-1.14-2.27-1.71-4.02-1.71-1.64,0-2.93.49-3.84,1.46-.92.97-1.38,2.28-1.38,3.92,0,1.28.51,2.44,1.54,3.48,1.03,1.04,2.84,2.11,5.45,3.22,4.55,1.65,7.85,3.66,9.92,6.06,2.06,2.39,3.09,5.44,3.09,9.13,0,4.06-1.29,7.23-3.88,9.52-2.58,2.29-6.1,3.43-10.54,3.43-3.01,0-5.76-.62-8.23-1.86-2.48-1.24-4.42-3.01-5.81-5.32-1.4-2.31-2.1-5.03-2.1-8.17h9.45c0,2.69.52,4.65,1.57,5.86,1.05,1.22,2.76,1.83,5.13,1.83,3.29,0,4.93-1.74,4.93-5.22Z"/><path class="h" d="M244.76,183.92v16.4h-9.42v-46.65h15.89c4.61,0,8.29,1.43,11.04,4.29,2.74,2.86,4.12,6.58,4.12,11.15s-1.36,8.18-4.07,10.83c-2.71,2.65-6.47,3.97-11.28,3.97h-6.28ZM244.76,176.07h6.47c1.79,0,3.18-.59,4.17-1.76.98-1.17,1.47-2.88,1.47-5.13s-.5-4.18-1.51-5.56c-1-1.38-2.35-2.08-4.04-2.1h-6.57v14.54Z"/><path class="h" d="M305.38,200.32h-9.39v-19.96h-13.9v19.96h-9.42v-46.65h9.42v18.87h13.9v-18.87h9.39v46.65Z"/><path class="h" d="M322.36,183.92v16.4h-9.42v-46.65h15.89c4.61,0,8.29,1.43,11.04,4.29,2.74,2.86,4.12,6.58,4.12,11.15s-1.36,8.18-4.07,10.83c-2.71,2.65-6.47,3.97-11.28,3.97h-6.28ZM322.36,176.07h6.47c1.79,0,3.18-.59,4.17-1.76.98-1.17,1.47-2.88,1.47-5.13s-.5-4.18-1.51-5.56c-1-1.38-2.35-2.08-4.04-2.1h-6.57v14.54Z"/><path class="h" d="M494.11,657.14h9.42v32.29c0,4.53-1.26,8.16-3.78,10.89-2.52,2.73-5.77,4.1-9.74,4.1-4.27,0-7.59-1.27-9.96-3.81-2.37-2.54-3.56-6.08-3.56-10.6h9.45c0,4.4,1.36,6.6,4.07,6.6s4.1-2.54,4.1-7.63v-31.85Z"/><path class="h" d="M532.49,694.24h-12.85l-2.5,9.55h-9.96l14.58-46.65h8.62l14.67,46.65h-10.06l-2.5-9.55ZM521.69,686.39h8.71l-4.36-16.63-4.36,16.63Z"/><path class="h" d="M562.12,690.97l7.85-33.83h10.51l-13.46,46.65h-9.8l-13.36-46.65h10.44l7.82,33.83Z"/><path class="h" d="M604.73,694.24h-12.85l-2.5,9.55h-9.96l14.58-46.65h8.62l14.67,46.65h-10.06l-2.5-9.55ZM593.94,686.39h8.71l-4.36-16.63-4.36,16.63Z"/><rect class="i" x="153.4" y="269.17" width="73.9" height="99.64"/><rect class="f" x="164.03" y="275.76" width="2" height="11.74" transform="translate(-150.81 199.18) rotate(-45)"/><rect class="f" x="159.16" y="280.63" width="11.74" height="2" transform="translate(-150.81 199.18) rotate(-45)"/><rect class="r" x="164.2" y="339.14" width="7.25" height="17.21"/><rect class="s" x="179.49" y="309.36" width="7.25" height="46.99"/><rect class="r" x="194.79" y="331.86" width="7.25" height="24.5"/><rect class="m" x="210.09" y="316.34" width="7.25" height="40.02"/><rect class="i" x="754.85" y="283.21" width="73.9" height="99.64"/><rect class="f" x="765.49" y="289.8" width="2" height="11.74" transform="translate(15.43 628.59) rotate(-45)"/><rect class="f" x="760.61" y="294.67" width="11.74" height="2" transform="translate(15.43 628.59) rotate(-45)"/><rect class="r" x="778.93" y="323.67" width="3.57" height="24.5" transform="translate(1116.63 -444.8) rotate(90)"/><rect class="m" x="786.69" y="323.44" width="3.57" height="40.02" transform="translate(1131.92 -445.03) rotate(90)"/><rect class="r" x="778.93" y="300.39" width="3.57" height="24.5" transform="translate(1093.36 -468.08) rotate(90)"/><rect class="m" x="786.69" y="300.16" width="3.57" height="40.02" transform="translate(1108.65 -468.31) rotate(90)"/><rect class="r" x="778.93" y="347.75" width="3.57" height="24.5" transform="translate(1140.71 -420.72) rotate(90)"/><rect class="m" x="786.69" y="347.52" width="3.57" height="40.02" transform="translate(1156 -420.95) rotate(90)"/><rect class="c" x="800.27" y="502.53" width="259.62" height="169.78"/><rect class="b" x="909.03" y="549.79" width="42.09" height="110.1"/><rect class="j" x="824.31" y="549.79" width="42.09" height="110.1"/><rect class="g" x="993.26" y="549.79" width="42.09" height="110.1"/><path class="h" d="M877.58,533.93h-53.1c-.55,0-1-.45-1-1s.45-1,1-1h53.1c.55,0,1,.45,1,1s-.45,1-1,1Z"/><path class="h" d="M853.12,541.86h-28.64c-.55,0-1-.45-1-1s.45-1,1-1h28.64c.55,0,1,.45,1,1s-.45,1-1,1Z"/><path class="h" d="M872.13,541.86h-13.3c-.55,0-1-.45-1-1s.45-1,1-1h13.3c.55,0,1,.45,1,1s-.45,1-1,1Z"/><path class="h" d="M1035.66,647.39h-211.19c-.55,0-1-.45-1-1s.45-1,1-1h211.19c.55,0,1,.45,1,1s-.45,1-1,1Z"/><path class="h" d="M824.49,652.17c-.55,0-1-.45-1-1v-4.78c0-.55.45-1,1-1s1,.45,1,1v4.78c0,.55-.45,1-1,1Z"/><path class="h" d="M866.73,652.17c-.55,0-1-.45-1-1v-4.78c0-.55.45-1,1-1s1,.45,1,1v4.78c0,.55-.45,1-1,1Z"/><path class="h" d="M908.97,652.17c-.55,0-1-.45-1-1v-4.78c0-.55.45-1,1-1s1,.45,1,1v4.78c0,.55-.45,1-1,1Z"/><path class="h" d="M951.21,652.17c-.55,0-1-.45-1-1v-4.78c0-.55.45-1,1-1s1,.45,1,1v4.78c0,.55-.45,1-1,1Z"/><path class="h" d="M993.44,652.17c-.55,0-1-.45-1-1v-4.78c0-.55.45-1,1-1s1,.45,1,1v4.78c0,.55-.45,1-1,1Z"/><path class="h" d="M1035.68,652.17c-.55,0-1-.45-1-1v-4.78c0-.55.45-1,1-1s1,.45,1,1v4.78c0,.55-.45,1-1,1Z"/><path class="h" d="M827.81,622.77c0,1.78-1.45,3.23-3.23,3.23s-3.23-1.45-3.23-3.23,1.45-3.23,3.23-3.23,3.23,1.45,3.23,3.23Z"/><path class="h" d="M912.52,614.84c0,1.78-1.45,3.23-3.23,3.23s-3.23-1.45-3.23-3.23,1.45-3.23,3.23-3.23,3.23,1.45,3.23,3.23Z"/><path class="h" d="M996.24,593.04c0,1.78-1.45,3.23-3.23,3.23s-3.23-1.45-3.23-3.23,1.45-3.23,3.23-3.23,3.23,1.45,3.23,3.23Z"/><path class="h" d="M1037.58,551.46c0,1.78-1.45,3.23-3.23,3.23s-3.23-1.45-3.23-3.23,1.45-3.23,3.23-3.23,3.23,1.45,3.23,3.23Z"/><path class="h" d="M945.79,633.9c-12.06,0-24.53-6.15-37.19-18.35-16.91-16.3-33.11-23.24-48.12-20.64-22.4,3.88-34.64,28.05-34.76,28.29-.25.49-.85.7-1.34.45-.5-.25-.7-.84-.45-1.34.51-1.03,12.8-25.31,36.2-29.37,15.69-2.72,32.46,4.4,49.86,21.17,14.75,14.22,29.14,19.95,42.76,17.05,26.56-5.66,41.74-42.51,41.89-42.88.05-.12,4.15-9.36,10.99-18.56,9.16-12.31,19.1-18.99,28.73-19.3.52-.06,1.01.41,1.03.97.02.55-.41,1.01-.97,1.03-21.91.71-37.79,36.28-37.95,36.64-.03.07-3.91,9.61-11.12,19.73-6.69,9.4-17.71,21.25-32.18,24.33-2.44.52-4.9.78-7.38.78Z"/></svg>